<svg xmlns="http://www.w3.org/2000/svg" width="36" height="36" viewBox="0 0 36 36" fill="none">
  <path d="M6.75 29.2502H8.4L25.0125 12.6377L23.3625 10.9877L6.75 27.6002V29.2502ZM29.775 11.0252L24.975 6.2252L26.55 4.6502C26.975 4.2252 27.5 4.0127 28.125 4.0127C28.75 4.0127 29.275 4.2252 29.7 4.6502L31.35 6.3002C31.775 6.7252 31.9875 7.2502 31.9875 7.8752C31.9875 8.5002 31.775 9.0252 31.35 9.4502L29.775 11.0252ZM28.2 12.6002L9.3 31.5002H4.5V26.7002L23.4 7.8002L28.2 12.6002ZM24.1875 11.8127L23.3625 10.9877L25.0125 12.6377L24.1875 11.8127Z" fill="#8490FF"/>
</svg>