<svg width="66" height="66" viewBox="0 0 66 66" fill="none" xmlns="http://www.w3.org/2000/svg">
<rect width="66" height="66" rx="33" fill="#8490FF"/>
<path d="M43.5333 44.9667L34.7667 36.2C34.1 36.7778 33.3227 37.2278 32.4347 37.55C31.5467 37.8722 30.6018 38.0333 29.6 38.0333C27.1964 38.0333 25.1622 37.2 23.4973 35.5333C21.8324 33.8667 21 31.8556 21 29.5C21 27.1445 21.8333 25.1333 23.5 23.4667C25.1667 21.8 27.1833 20.9667 29.55 20.9667C31.9167 20.9667 33.9278 21.8 35.5833 23.4667C37.2389 25.1333 38.0667 27.1461 38.0667 29.505C38.0667 30.4572 37.9111 31.3778 37.6 32.2667C37.2889 33.1556 36.8222 33.9889 36.2 34.7667L45 43.5L43.5333 44.9667ZM29.5667 36.0333C31.3722 36.0333 32.9069 35.3945 34.1708 34.1167C35.4347 32.8389 36.0667 31.3 36.0667 29.5C36.0667 27.7 35.4347 26.1611 34.1708 24.8833C32.9069 23.6056 31.3722 22.9667 29.5667 22.9667C27.7426 22.9667 26.1921 23.6056 24.9153 24.8833C23.6384 26.1611 23 27.7 23 29.5C23 31.3 23.6384 32.8389 24.9153 34.1167C26.1921 35.3945 27.7426 36.0333 29.5667 36.0333Z" fill="white"/>
</svg>
