<svg width="12" height="8" viewBox="0 0 12 8" fill="none" xmlns="http://www.w3.org/2000/svg">
<path d="M11.4372 4.02144C10.4219 2.02856 8.39144 0.674897 6.09774 0.674897C3.78524 0.674897 1.75475 2.02856 0.739508 4.02144C0.701906 4.09665 0.683105 4.19065 0.683105 4.28465C0.683105 4.39746 0.701906 4.49146 0.739508 4.56667C1.75475 6.55955 3.78524 7.89441 6.09774 7.89441C8.39144 7.89441 10.4219 6.55955 11.4372 4.56667C11.4748 4.49146 11.4936 4.39746 11.4936 4.30345C11.4936 4.19065 11.4748 4.09665 11.4372 4.02144ZM6.09774 6.99197C4.59367 6.99197 3.39042 5.78872 3.39042 4.28465C3.39042 2.79939 4.59367 1.57734 6.09774 1.57734C7.583 1.57734 8.80506 2.79939 8.80506 4.28465V4.30345C8.80506 5.78872 7.583 7.01077 6.09774 7.01077V6.99197ZM6.09774 2.47978C5.92853 2.49858 5.75932 2.51738 5.60892 2.55498C5.72172 2.70539 5.77813 2.89339 5.77813 3.1002C5.77813 3.58902 5.38331 3.98384 4.89449 3.98384C4.68768 3.98384 4.49967 3.92744 4.34926 3.81463C4.31166 3.96504 4.29286 4.13425 4.29286 4.28465C4.29286 5.2811 5.1013 6.08953 6.09774 6.08953C7.09418 6.08953 7.90262 5.2811 7.90262 4.28465C7.90262 3.28821 7.09418 2.49858 6.09774 2.49858V2.47978Z" fill="#868E96"/>
</svg>
